<svg xmlns="http://www.w3.org/2000/svg" viewBox="0 0 600 180">
  <path fill="#f3f3f3" d="M214.06 57.96c-35.97 26.48-88.17 40.5-133.11 40.5-62.95 0-119.74-23.24-162.63-61.95-3.38-3.06-.36-7.21 3.7-4.85 46.46 27.06 103.88 43.33 163.2 43.33 40 0 84-8.27 124.45-25.36 6.09-2.57 11.2 4 5.39 8.33z"/>
  <path fill="#f3f3f3" d="M224.67 45.66c-4.6-5.9-30.42-2.79-42.05-1.4-3.53.41-4.07-2.66-.9-4.89 20.6-14.48 54.34-10.3 58.26-5.45 3.93 4.88-1.02 38.76-20.38 54.93-2.98 2.48-5.8 1.16-4.48-2.14 4.35-10.86 14.08-35.14 9.55-41.05z"/>
</svg>